<?xml version="1.0"?>
<svg version="1.1" xmlns="http://www.w3.org/2000/svg" xmlns:xlink="http://www.w3.org/1999/xlink" width="184" height="42">
    <desc iVinci="yes" version="2.9" gridStep="2" showGrid="no" snapToGrid="no" codePlatform="0"/>
    <g id="Layer0">
        <g id="Shape1">
            <desc type="0" basicInfo-basicType="0" basicInfo-roundedRectRadius="0" basicInfo-polygonSides="6" basicInfo-starPoints="5" text="" font-familyName="" font-pointSize="20" font-weight="-1" strokeStyle="0" markerStart="0" markerEnd="0" shadowEnabled="0" shadowOffsetX="0" shadowOffsetY="2" shadowBlur="4" shadowOpacity="160" transform="matrix(0.151926,0,0,0.151926,19.8079,28.0095)" locked="0" mesh="" flag=""/>
            <path id="shapePath1" d="M4.6153,17.839 C4.6153,17.839 4.6153,35.9724 4.6153,35.9724 C4.6153,35.9724 10.4789,41.836 10.4789,41.836 C10.4789,41.836 29.137,41.836 29.137,41.836 C29.137,41.836 35.0005,35.9724 35.0005,35.9724 C35.0005,35.9724 35.0005,18.0774 35.0005,18.0774 C35.0005,18.0774 27.738,14.3022 27.738,14.3022 C27.738,14.3022 27.738,34.519 27.738,34.519 C27.738,34.519 11.8937,34.519 11.8937,34.519 C11.8937,34.519 11.8937,14.183 11.8937,14.183 C11.8937,14.183 4.6153,17.839 4.6153,17.839 Z" style="stroke:none;fill-rule:evenodd;fill:#e6e6e6;fill-opacity:1;"/>
        </g>
        <g id="Shape2">
            <desc type="0" basicInfo-basicType="0" basicInfo-roundedRectRadius="0" basicInfo-polygonSides="6" basicInfo-starPoints="5" text="" font-familyName="" font-pointSize="20" font-weight="-1" strokeStyle="0" markerStart="0" markerEnd="0" shadowEnabled="0" shadowOffsetX="0" shadowOffsetY="2" shadowBlur="4" shadowOpacity="160" transform="matrix(0.151926,0,0,0.151926,-0.0339343,22.2291)" locked="0" mesh="" flag=""/>
            <path id="shapePath2" d="M-0.0339343,22.2291 Z" style="stroke:none;fill-rule:evenodd;fill:#e6e6e6;fill-opacity:1;"/>
        </g>
        <g id="Shape3">
            <desc type="0" basicInfo-basicType="0" basicInfo-roundedRectRadius="0" basicInfo-polygonSides="6" basicInfo-starPoints="5" text="" font-familyName="" font-pointSize="20" font-weight="-1" strokeStyle="0" markerStart="0" markerEnd="0" shadowEnabled="0" shadowOffsetX="0" shadowOffsetY="2" shadowBlur="4" shadowOpacity="160" transform="matrix(0.151926,0,0,0.151926,8.27307,13.8511)" locked="0" mesh="" flag=""/>
            <path id="shapePath3" d="M3.37774,19.3182 C3.37774,19.3182 3.39827,13.222 3.39827,13.222 C3.39827,13.222 13.1684,8.38407 13.1684,8.38407 C13.1684,8.38407 13.1684,14.396 13.1684,14.396 C13.1684,14.396 3.37774,19.3182 3.37774,19.3182 Z" style="stroke:none;fill-rule:evenodd;fill:#e6e6e6;fill-opacity:1;"/>
        </g>
        <g id="Shape4">
            <desc type="0" basicInfo-basicType="0" basicInfo-roundedRectRadius="0" basicInfo-polygonSides="6" basicInfo-starPoints="5" text="" font-familyName="" font-pointSize="20" font-weight="-1" strokeStyle="0" markerStart="0" markerEnd="0" shadowEnabled="0" shadowOffsetX="0" shadowOffsetY="2" shadowBlur="4" shadowOpacity="160" transform="matrix(0.151926,0,0,0.151926,31.3582,13.8797)" locked="0" mesh="" flag=""/>
            <path id="shapePath4" d="M26.5139,14.4289 C26.5139,14.4289 26.5139,8.38407 26.5139,8.38407 C26.5139,8.38407 36.2025,13.3287 36.2025,13.3287 C36.2025,13.3287 36.1841,19.3754 36.1841,19.3754 C36.1841,19.3754 26.5139,14.4289 26.5139,14.4289 Z" style="stroke:none;fill-rule:evenodd;fill:#e6e6e6;fill-opacity:1;"/>
        </g>
        <g id="Shape5">
            <desc type="0" basicInfo-basicType="0" basicInfo-roundedRectRadius="0" basicInfo-polygonSides="6" basicInfo-starPoints="5" text="" font-familyName="" font-pointSize="20" font-weight="-1" strokeStyle="0" markerStart="0" markerEnd="0" shadowEnabled="0" shadowOffsetX="0" shadowOffsetY="2" shadowBlur="4" shadowOpacity="160" transform="matrix(-0.151926,0,0,0.151926,28.0395,7.11714)" locked="0" mesh="" flag=""/>
            <path id="shapePath5" d="M36.8236,12.5865 C36.8236,12.5865 39.2544,13.8019 39.2544,13.8019 C39.2544,13.8019 39.2544,10.1556 39.2544,10.1556 C39.2544,10.1556 19.8079,0.432374 19.8079,0.432374 C19.8079,0.432374 16.8247,2.56035 16.8247,2.56035 C16.8247,2.56035 36.8236,12.5865 36.8236,12.5865 Z" style="stroke:none;fill-rule:evenodd;fill:#e6e6e6;fill-opacity:1;"/>
        </g>
        <g id="Shape6">
            <desc type="0" basicInfo-basicType="0" basicInfo-roundedRectRadius="0" basicInfo-polygonSides="6" basicInfo-starPoints="5" text="" font-familyName="" font-pointSize="20" font-weight="-1" strokeStyle="0" markerStart="0" markerEnd="0" shadowEnabled="0" shadowOffsetX="0" shadowOffsetY="2" shadowBlur="4" shadowOpacity="160" transform="matrix(0.151926,0,0,0.151926,11.7573,7.11714)" locked="0" mesh="" flag=""/>
            <path id="shapePath6" d="M2.7922,12.5865 C2.7922,12.5865 0.361394,13.8019 0.361394,13.8019 C0.361394,13.8019 0.361394,10.1556 0.361394,10.1556 C0.361394,10.1556 19.8222,0.432374 19.8222,0.432374 C19.8222,0.432374 23.1533,2.43715 23.1533,2.43715 C23.1533,2.43715 2.7922,12.5865 2.7922,12.5865 Z" style="stroke:none;fill-rule:evenodd;fill:#e6e6e6;fill-opacity:1;"/>
        </g>
        <g id="Shape7">
            <desc type="0" basicInfo-basicType="0" basicInfo-roundedRectRadius="0" basicInfo-polygonSides="6" basicInfo-starPoints="5" text="" font-familyName="" font-pointSize="20" font-weight="-1" strokeStyle="0" markerStart="0" markerEnd="0" shadowEnabled="0" shadowOffsetX="0" shadowOffsetY="2" shadowBlur="4" shadowOpacity="160" transform="matrix(0.151926,0,0,0.211457,8.2533,6.40203)" locked="0" mesh="" flag=""/>
            <path id="shapePath7" d="M4.6153,11.1225 C4.6153,11.1225 4.6153,1.68155 4.6153,1.68155 C4.6153,1.68155 11.8913,1.68155 11.8913,1.68155 C11.8913,1.68155 11.8913,7.42525 11.8913,7.42525 C11.8913,7.42525 4.6153,11.1225 4.6153,11.1225 Z" style="stroke:none;fill-rule:evenodd;fill:#e6e6e6;fill-opacity:1;"/>
        </g>
        <g id="Shape8">
            <desc type="2" basicInfo-basicType="0" basicInfo-roundedRectRadius="0" basicInfo-polygonSides="6" basicInfo-starPoints="5" text="HOUSED" font-familyName="Gill Sans" font-pointSize="136" font-weight="75" strokeStyle="0" markerStart="0" markerEnd="0" shadowEnabled="0" shadowOffsetX="0" shadowOffsetY="2" shadowBlur="4" shadowOpacity="160" transform="matrix(0.228343,0,0,0.227066,111.288,16.9462)" locked="0" mesh="" flag=""/>
            <path id="shapePath8" d="M64.0834,34.6573 L57.7603,34.6573 L57.7603,26.4998 L48.2225,26.4998 L48.2225,34.6573 L41.8842,34.6573 L41.8842,13.7584 L48.2225,13.7584 L48.2225,21.4334 L57.7603,21.4334 L57.7603,13.7584 L64.0834,13.7584 L64.0834,34.6573 M91.8476,24.1928 C91.8476,26.143 91.3953,27.9373 90.4905,29.5759 C89.5858,31.2144 88.2387,32.5162 86.4495,33.4812 C84.6602,34.4462 82.4817,34.9288 79.914,34.9288 C77.316,34.9288 75.1173,34.4261 73.3179,33.4209 C71.5186,32.4157 70.1817,31.0938 69.3072,29.4552 C68.4328,27.8167 67.9956,26.0625 67.9956,24.1928 C67.9956,22.313 68.4303,20.5563 69.2997,18.9228 C70.169,17.2893 71.5059,15.9724 73.3104,14.9722 C75.1148,13.972 77.316,13.4719 79.914,13.4719 C81.8549,13.4719 83.5861,13.7584 85.1075,14.3314 C86.6289,14.9044 87.8799,15.6809 88.8604,16.661 C89.841,17.6411 90.584,18.7821 91.0895,20.0839 C91.5949,21.3857 91.8476,22.7553 91.8476,24.1928 M85.388,24.1928 C85.388,23.4087 85.2718,22.6925 85.0393,22.0441 C84.8068,21.3957 84.4555,20.8328 83.9854,20.3553 C83.5153,19.8778 82.9417,19.5059 82.2644,19.2395 C81.5871,18.9731 80.8036,18.8399 79.914,18.8399 C78.2157,18.8399 76.8813,19.3325 75.9109,20.3176 C74.9404,21.3027 74.4552,22.5945 74.4552,24.1928 C74.4552,25.7911 74.943,27.0854 75.9185,28.0755 C76.894,29.0657 78.2258,29.5608 79.914,29.5608 C81.0766,29.5608 82.0672,29.3321 82.8861,28.8747 C83.7049,28.4173 84.3266,27.784 84.7512,26.9748 C85.1757,26.1656 85.388,25.2382 85.388,24.1928 M117.683,25.2935 C117.683,27.0829 117.347,28.6083 116.675,29.8699 C116.003,31.1315 115.113,32.1292 114.006,32.863 C112.899,33.5968 111.706,34.1246 110.428,34.4462 C109.149,34.7679 107.873,34.9288 106.599,34.9288 C104.82,34.9288 103.089,34.6272 101.405,34.024 C99.7223,33.4209 98.3147,32.3956 97.1825,30.948 C96.0503,29.5005 95.4842,27.6156 95.4842,25.2935 L95.4842,13.7584 L101.807,13.7584 L101.807,23.665 C101.807,25.0422 102.007,26.1807 102.406,27.0803 C102.806,27.98 103.362,28.6385 104.074,29.0556 C104.787,29.4728 105.628,29.6814 106.599,29.6814 C107.529,29.6814 108.353,29.4753 109.071,29.0632 C109.788,28.651 110.347,27.9976 110.746,27.103 C111.145,26.2083 111.345,25.0724 111.345,23.6952 L111.345,13.7584 L117.683,13.7584 L117.683,25.2935 M137.35,28.5807 C137.35,29.8875 137.014,31.0184 136.342,31.9734 C135.67,32.9283 134.732,33.6596 133.529,34.1673 C132.326,34.6749 130.946,34.9288 129.39,34.9288 C128.955,34.9288 128.422,34.9011 127.79,34.8458 C127.158,34.7905 126.319,34.6372 125.273,34.3859 C124.226,34.1346 123.137,33.7627 122.005,33.2701 L122.005,28.1434 C123.066,28.7968 124.11,29.3396 125.136,29.7719 C126.162,30.2041 127.262,30.4203 128.434,30.4203 C129.516,30.4203 130.216,30.2418 130.534,29.885 C130.853,29.5281 131.012,29.1939 131.012,28.8822 C131.012,28.3193 130.739,27.8443 130.193,27.4573 C129.647,27.0703 128.854,26.6707 127.813,26.2586 C126.66,25.7761 125.649,25.2508 124.78,24.6829 C123.91,24.1149 123.2,23.4037 122.649,22.5492 C122.098,21.6948 121.823,20.6845 121.823,19.5184 C121.823,18.3926 122.101,17.3748 122.657,16.465 C123.213,15.5553 124.062,14.829 125.204,14.2862 C126.347,13.7433 127.742,13.4719 129.39,13.4719 C130.562,13.4719 131.646,13.585 132.642,13.8112 C133.638,14.0374 134.459,14.2912 135.106,14.5726 C135.753,14.8541 136.198,15.0753 136.441,15.2361 L136.441,20.1367 C135.581,19.5235 134.623,18.9756 133.567,18.4931 C132.511,18.0106 131.381,17.7693 130.178,17.7693 C129.39,17.7693 128.818,17.9201 128.465,18.2217 C128.111,18.5232 127.934,18.8952 127.934,19.3375 C127.934,19.7496 128.111,20.1065 128.465,20.4081 C128.818,20.7096 129.45,21.0766 130.36,21.5088 C131.977,22.2627 133.271,22.9413 134.242,23.5444 C135.212,24.1476 135.973,24.8437 136.524,25.6328 C137.075,26.4219 137.35,27.4045 137.35,28.5807 M157.502,34.6573 L141.656,34.6573 L141.656,13.7584 L157.244,13.7584 L157.244,17.9503 L147.994,17.9503 L147.994,21.7802 L156.819,21.7802 L156.819,25.9872 L147.994,25.9872 L147.994,30.4504 L157.502,30.4504 L157.502,34.6573 M183.354,24.5848 C183.354,26.726 182.963,28.445 182.179,29.7417 C181.396,31.0385 180.473,32.089 179.412,32.8932 C177.906,34.0693 175.798,34.6573 173.089,34.6573 L172.77,34.6573 L161.746,34.6573 L161.746,13.7584 L170.481,13.7584 C171.795,13.7584 172.919,13.8263 173.854,13.962 C174.79,14.0977 175.631,14.2887 176.379,14.535 C177.127,14.7812 177.764,15.0577 178.29,15.3643 C178.815,15.6709 179.285,16.0001 179.7,16.3519 C180.418,16.935 181.047,17.6236 181.588,18.4177 C182.129,19.2118 182.558,20.1316 182.877,21.1771 C183.195,22.2225 183.354,23.3584 183.354,24.5848 M176.91,24.3134 C176.91,22.6146 176.584,21.2902 175.932,20.3402 C175.28,19.3903 174.496,18.7544 173.581,18.4328 C172.667,18.1111 171.734,17.9503 170.784,17.9503 L168.085,17.9503 L168.085,30.3298 L170.784,30.3298 C172.442,30.3298 173.877,29.9377 175.09,29.1537 C176.303,28.3696 176.91,26.7562 176.91,24.3134 " style="stroke:none;fill-rule:evenodd;fill:#e6e6e6;fill-opacity:1;"/>
        </g>
    </g>
</svg>
